<svg version="1.1" id="Layer_1" xmlns="http://www.w3.org/2000/svg" xmlns:xlink="http://www.w3.org/1999/xlink" x="0px" y="0px" style="enable-background:new 0 0 1500 1500;" xml:space="preserve" viewBox="251.12 532.75 997.77 434.47"> <style type="text/css"> 	.st0{fill:#385B41;} </style> <g> 	<g> 		<path class="st0" d="M251.14,868.48v-0.46h21.64v0.46l-7.75,1.5c-1.39,0.23-1.97,1.27-1.5,2.55l25.57,70.36l15.04-39.81 			l-11.69-30.55c-0.46-1.27-1.74-2.31-3.12-2.55l-7.41-1.5v-0.46h20.48v0.46l-0.23,0.23c-0.93,1.04-1.27,2.55-0.81,3.82l7.75,21.52 			l8.22-21.52c0.46-1.27,0.12-2.78-0.81-3.82l-0.23-0.23v-0.46h15.97v0.46l-9.61,1.5c-1.27,0.23-2.55,1.27-3.12,2.55l-9.37,24.42 			l16.66,46.06l26.62-70.48c0.46-1.27-0.12-2.31-1.5-2.55l-8.8-1.5v-0.46h15.97v0.46l-0.69,0.58c-1.04,0.81-2.2,2.2-2.66,3.47 			l-28.01,73.14c0.58,1.27,1.74,2.2,3.12,2.31l6.6,0.46v0.58h-15.85l-16.43-43.16l-15.16,39.58c0.69,1.39,2.08,2.31,3.7,2.43 			l8.33,0.58v0.58h-18.17l-29.16-76.49c-0.58-1.27-1.62-2.66-2.78-3.47L251.14,868.48z"></path> 		<path class="st0" d="M373.45,943.82c0,1.74,1.16,3.12,2.78,3.47l6.48,1.27v0.46h-18.98v-0.46l0.12-0.12 			c1.27-1.04,2.2-2.89,2.2-4.63v-54.16h16.66v0.46l-6.48,1.39c-1.62,0.35-2.78,1.74-2.78,3.47V943.82z M370.68,866.05 			c2.89,0,5.21,2.43,5.21,5.32c0,2.89-2.31,5.32-5.21,5.32c-3.01,0-5.32-2.43-5.32-5.32C365.35,868.48,367.67,866.05,370.68,866.05z 			"></path> 		<path class="st0" d="M445.43,948.56v0.46h-25.92v-0.46l6.48-1.27c1.74-0.35,2.78-1.74,2.78-3.47v-37.61 			c0-11.11-1.85-16.09-6.83-15.74c-10.07,0.46-21.06,29.16-22.33,42.12v11.22c0,1.74,1.16,3.12,2.78,3.47l6.48,1.27v0.46h-18.98 			v-0.46l0.12-0.12c1.27-1.04,2.2-2.89,2.2-4.63v-48.95c0-1.74-0.93-3.59-2.2-4.63l-0.12-0.12v-0.46h18.98v0.46l-6.48,1.27 			c-1.62,0.35-2.78,1.74-2.78,3.47v29.16c3.36-14,12.61-35.41,23.26-35.64c8.91-0.23,13.42,4.98,13.42,16.43v18.86 			c3.47-14,12.5-35.06,23.14-35.3c8.91-0.23,13.42,4.98,13.31,16.43v39c0,1.62,0.93,3.59,2.2,4.63l0.12,0.12v0.46h-20.14v-0.46 			l7.64-1.39c1.62-0.35,2.78-1.74,2.78-3.36v-37.61c0-11.11-1.85-16.09-6.83-15.74c-9.95,0.46-20.71,28.12-22.22,41.43l-0.12,8.1 			v3.82c0,1.74,1.16,3.12,2.89,3.47L445.43,948.56z"></path> 		<path class="st0" d="M485.59,866.28h16.66v0.46l-6.36,1.39c-1.74,0.35-2.89,1.74-2.89,3.47v58.79c0,13.66,5.79,18.75,14.93,18.75 			c13.54,0,19.21-13.19,19.21-29.51c0-16.32-5.79-29.51-19.21-29.51c-3.82,0-6.94,1.04-9.6,2.89c-0.58,0.46-1.16,0.35-1.5-0.35 			l-0.23-0.23c3.12-2.31,7.17-3.7,11.34-3.7c16.09,0,26.85,12.38,26.85,30.9c0,18.4-10.65,30.9-26.85,30.9 			c-9.37,0-12.73-5.09-16.55-5.09c-1.62,0-3.36,0.93-5.79,3.7V866.28z"></path> 		<path class="st0" d="M555.94,905.28h28.7c-2.08-9.26-8.22-14.81-16.32-14.93c-28.35-0.35-25.11,57.51,5.55,55.89 			c6.94-0.35,14.7-4.86,18.4-19.21h1.62c-2.55,14.35-12.15,23.49-25.69,23.49c-15.97,0-26.15-12.15-26.15-30.9 			c0-18.52,10.53-30.9,26.15-30.9c11.69,0,21.06,7.06,24.3,17.94l0.12,0.12h-36.68V905.28z"></path> 		<path class="st0" d="M622.71,948.56v0.46h-20.14v-0.46l0.12-0.12c1.27-1.04,2.2-2.89,2.2-4.63v-48.95c0-1.74-0.93-3.59-2.2-4.74 			h-0.12v-0.46h15.51v0.46l-3.12,0.93c-1.62,0.58-2.66,2.08-2.66,3.82v23.84c2.08-13.31,7.06-29.62,17.47-30.44 			c7.52-0.58,12.61,3.36,14.23,11.11l-13.66,13.31c-0.12-0.12-0.69-0.69-0.81-0.81c4.51-4.63,7.06-7.29,7.52-11.23 			c0.58-6.36-2.55-10.41-7.87-10.07c-10.99,0.69-16.55,29.39-16.9,42.24v10.99c0,1.62,1.16,3.01,2.78,3.36L622.71,948.56z"></path> 		<path class="st0" d="M660.67,943.82c0,1.74,1.16,3.12,2.89,3.47l6.36,1.27v0.46h-18.98v-0.46l0.12-0.12 			c1.39-1.04,2.2-2.89,2.2-4.63v-77.53h16.66v0.46l-6.36,1.39c-1.74,0.35-2.89,1.74-2.89,3.47V943.82z"></path> 		<path class="st0" d="M684.62,905.28h28.7c-2.08-9.26-8.22-14.81-16.32-14.93c-28.35-0.35-25.11,57.51,5.55,55.89 			c6.94-0.35,14.7-4.86,18.4-19.21h1.62c-2.55,14.35-12.15,23.49-25.69,23.49c-15.97,0-26.15-12.15-26.15-30.9 			c0-18.52,10.53-30.9,26.15-30.9c11.69,0,21.06,7.06,24.3,17.94l0.12,0.12h-36.68V905.28z"></path> 		<path class="st0" d="M760.88,890.12v-0.46h15.97v0.46l-0.81,0.58c-1.16,0.81-2.2,2.2-2.78,3.47l-20.37,53.58 			c-3.82,9.95-6.71,19.44-19.09,19.44c-2.43,0-4.86-0.46-7.18-1.27l3.01-9.61l0.46,0.12c1.39,3.47,5.09,5.21,8.68,5.21 			c8.1,0,9.72-6.13,12.03-12.61h-3.36l-20.95-54.85c-0.46-1.27-1.62-2.66-2.78-3.47l-0.81-0.58v-0.46h22.33v0.46l-8.91,1.5 			c-1.27,0.23-1.97,1.27-1.5,2.55l17.94,49.53l18.4-49.53c0.58-1.27,0-2.31-1.39-2.55L760.88,890.12z"></path> 		<path class="st0" d="M815.84,868.48v-0.46h21.64v0.46l-7.75,1.5c-1.39,0.23-1.97,1.27-1.5,2.55l25.57,70.36l15.04-39.81 			l-11.69-30.55c-0.46-1.27-1.74-2.31-3.12-2.55l-7.41-1.5v-0.46h20.48v0.46l-0.23,0.23c-0.93,1.04-1.27,2.55-0.81,3.82l7.75,21.52 			l8.22-21.52c0.46-1.27,0.12-2.78-0.81-3.82l-0.23-0.23v-0.46h15.97v0.46l-9.61,1.5c-1.27,0.23-2.55,1.27-3.12,2.55l-9.37,24.42 			l16.66,46.06l26.62-70.48c0.46-1.27-0.12-2.31-1.5-2.55l-8.79-1.5v-0.46h15.97v0.46l-0.69,0.58c-1.04,0.81-2.2,2.2-2.66,3.47 			l-28.01,73.14c0.58,1.27,1.74,2.2,3.12,2.31l6.6,0.46v0.58h-15.85l-16.43-43.16l-15.16,39.58c0.69,1.39,2.08,2.31,3.7,2.43 			l8.33,0.58v0.58h-18.17l-29.16-76.49c-0.58-1.27-1.62-2.66-2.78-3.47L815.84,868.48z"></path> 		<path class="st0" d="M933.3,905.28H962c-2.08-9.26-8.22-14.81-16.32-14.93c-28.35-0.35-25.11,57.51,5.55,55.89 			c6.94-0.35,14.7-4.86,18.4-19.21h1.62c-2.55,14.35-12.15,23.49-25.69,23.49c-15.97,0-26.15-12.15-26.15-30.9 			c0-18.52,10.53-30.9,26.15-30.9c11.69,0,21.06,7.06,24.3,17.94l0.12,0.12H933.3V905.28z"></path> 		<path class="st0" d="M988.38,943.82c0,1.74,1.16,3.12,2.89,3.47l6.36,1.27v0.46h-18.98v-0.46l0.12-0.12 			c1.39-1.04,2.2-2.89,2.2-4.63v-77.53h16.66v0.46l-6.36,1.39c-1.74,0.35-2.89,1.74-2.89,3.47V943.82z"></path> 		<path class="st0" d="M1012.1,943.82c0,1.74,1.16,3.12,2.89,3.47l6.36,1.27v0.46h-18.98v-0.46l0.12-0.12 			c1.39-1.04,2.2-2.89,2.2-4.63v-77.53h16.66v0.46l-6.36,1.39c-1.74,0.35-2.89,1.74-2.89,3.47V943.82z"></path> 		<path class="st0" d="M1078.87,949.03h-20.14v-0.46l7.64-1.39c1.74-0.35,2.78-1.62,2.78-3.36v-4.4l0.12-33.21 			c0-11.11-2.43-16.32-7.87-15.97c-11.46,0.46-23.95,31.94-24.3,43.86v9.72c0,1.74,1.04,3.01,2.78,3.36l7.64,1.39v0.46h-20.14v-0.58 			c1.39-1.04,2.31-2.89,2.31-4.63v-48.95c0-1.74-0.93-3.59-2.31-4.63v-0.58h20.14v0.46l-7.64,1.39c-1.74,0.35-2.78,1.62-2.78,3.36 			v29.62c3.59-14,13.54-35.87,25.34-36.11c9.72-0.23,14.12,4.98,14.12,16.43v39c0,1.62,0.93,3.59,2.31,4.63V949.03z"></path> 		<path class="st0" d="M1100.51,905.28h28.7c-2.08-9.26-8.22-14.81-16.32-14.93c-28.35-0.35-25.11,57.51,5.55,55.89 			c6.94-0.35,14.7-4.86,18.4-19.21h1.62c-2.55,14.35-12.15,23.49-25.69,23.49c-15.97,0-26.15-12.15-26.15-30.9 			c0-18.52,10.53-30.9,26.15-30.9c11.69,0,21.06,7.06,24.3,17.94l0.12,0.12h-36.68V905.28z"></path> 		<path class="st0" d="M1188.34,937.45c0.12-4.28-2.78-7.64-9.37-10.76l-21.76-10.3c-6.36-3.01-9.6-7.52-9.49-13.19 			c0.23-8.91,8.68-14.93,20.95-14.7c10.65,0.12,18.75,4.86,22.33,12.96l-10.76,10.88c-0.12-0.12-0.58-0.69-0.81-0.81 			c3.12-2.89,5.44-7.75,5.55-11.23c0-5.9-6.6-10.07-16.32-10.18c-9.37-0.23-15.51,3.59-15.62,9.72c0,4.28,2.78,7.87,8.1,10.3 			l22.57,10.41c7.06,3.24,10.42,7.64,10.42,13.54c-0.23,9.84-10.42,16.78-24.19,16.55c-11.8-0.12-21.52-5.44-25.69-13.89 			l12.61-11.69c0.23,0.12,0.81,0.81,0.93,0.93c-3.82,3.36-6.36,7.75-6.36,11.46c-0.12,6.6,7.41,11.34,18.17,11.57 			C1180.59,949.14,1188.23,944.4,1188.34,937.45z"></path> 		<path class="st0" d="M1243.08,937.45c0.12-4.28-2.78-7.64-9.37-10.76l-21.76-10.3c-6.36-3.01-9.6-7.52-9.49-13.19 			c0.23-8.91,8.68-14.93,20.95-14.7c10.65,0.12,18.75,4.86,22.33,12.96l-10.76,10.88c-0.12-0.12-0.58-0.69-0.81-0.81 			c3.12-2.89,5.44-7.75,5.55-11.23c0-5.9-6.6-10.07-16.32-10.18c-9.37-0.23-15.51,3.59-15.62,9.72c0,4.28,2.78,7.87,8.1,10.3 			l22.57,10.41c7.06,3.24,10.41,7.64,10.41,13.54c-0.23,9.84-10.41,16.78-24.19,16.55c-11.8-0.12-21.52-5.44-25.69-13.89 			l12.61-11.69c0.23,0.12,0.81,0.81,0.93,0.93c-3.82,3.36-6.36,7.75-6.36,11.46c-0.12,6.6,7.41,11.34,18.17,11.57 			C1235.32,949.14,1242.96,944.4,1243.08,937.45z"></path> 	</g> 	<g> 		<path class="st0" d="M804.32,807.13l-3.17-9.12l-57.13-157.9l32.14-83.71c1.98-4.36,6.35-7.93,10.71-8.73l32.93-5.16v-1.59h-54.75 			v1.59l0.79,0.79c3.17,3.57,4.36,8.73,2.78,13.09l-28.17,73.79l-26.58-73.79c-1.59-4.36-0.4-9.52,2.78-13.09l0.79-0.79v-1.59 			h-70.22v1.59l25.39,5.16c4.76,0.79,9.13,4.36,10.71,8.73l40.07,104.74l-51.57,136.48L584.14,556.4c-1.59-4.36,0.4-7.93,5.16-8.73 			l26.58-5.16v-1.59h-74.19v1.59l2.78,1.98c3.97,2.78,7.54,7.54,9.52,11.9l99.98,262.24h62.29v-1.98l-28.57-1.98 			c-5.55-0.4-10.31-3.57-12.7-8.33l51.97-135.68l56.33,147.98h54.35v-1.98l-22.61-1.59C810.27,814.67,806.31,811.49,804.32,807.13z"></path> 		<path class="st0" d="M912.16,758.64c-20.91-4.44-42.45-2.2-62,6.43c-0.29,0.13-0.42,0.36-0.45,0.61 			c-0.55,0.13-0.81,1.01-0.24,1.43c-0.04,0.24,0.02,0.49,0.28,0.68c0.04,0.03,0.09,0.07,0.13,0.1c-9.56,1.12-18.14,2.37-25.29,8.27 			c2.57-5.29,5.08-10.6,7.53-15.95c6.98-3.97,12.5-10.23,18.26-15.71c8.41-8,17.69-15.14,29.19-17.81c0.52-0.12,0.71-0.62,0.63-1.03 			c0.03,0,0.05,0,0.08-0.01c0.14-0.04,0.27-0.08,0.41-0.12c0.09,0.05,0.19,0.09,0.31,0.1c9.89,1.05,20.79,2.08,29.67-3.4 			c9.87-6.09,11.2-18.21,15.03-28.17c0.12-0.31,0.04-0.58-0.13-0.78c-0.2-0.39-0.7-0.67-1.18-0.37c-0.23,0.14-0.46,0.26-0.69,0.4 			c-0.17-0.58-0.92-0.95-1.33-0.33c-0.4,0.61-0.81,1.2-1.22,1.8c-4.3,2.38-8.79,4.34-13.53,5.73c-4.89,1.44-9.8,2.18-14.28,4.76 			c-7.28,4.18-12.17,11.1-14.35,19.12c-0.1,0.36,0.05,0.61,0.29,0.75c-10.37,2.43-18.58,8.09-26.54,15.03 			c-6.52,5.69-12.18,12.69-19.45,17.47c9.43-20.84,17.74-42.15,23.76-64.3c0.54-1.99,2.55-9.86,2.86-11.13 			c4.12-4.44,11.03-7.05,17.26-9.47c0.03,0,0.05,0.02,0.08,0.02c6.14,0.11,12.22-0.37,18.26-1.49c0.05-0.01,0.09-0.04,0.13-0.05 			c0.09,0.07,0.2,0.13,0.33,0.16c8.08,1.92,16.26,2.79,24.56,2.63c0.71-0.01,0.9-0.99,0.41-1.4c-4.6-3.86-11.42-9.21-17.81-9.09 			c-3.9,0.08-6.95,2.5-7.38,6.22c-0.12-0.05-0.25-0.08-0.42-0.05c-4.71,0.87-9.44,1.36-14.21,1.47c1.13-0.48,2.21-0.96,3.21-1.46 			c6.34-3.19,12.15-7.05,17.18-12.01c0.4,0.34,0.82,0.65,1.31,0.86c1.4,0.62,3.15,0.72,5.14,0.28c2.77-0.61,5.71-2.23,8.27-4.55 			c1.13-1.03,2.03-1.95,1.59-2.9c-0.45-0.97-1.62-0.8-3.54-0.52c-1.86,0.27-4.66,0.68-5.59-0.35c-0.92-1.02-0.3-3.78,0.1-5.62 			c0.42-1.9,0.7-3.16-0.24-3.71c-0.92-0.59-1.96,0.31-3.04,1.29c-2.56,2.32-4.45,5.08-5.33,7.79c-0.8,2.46-0.64,4.6,0.34,6.21 			c-6.61,6.57-14.66,10.93-23.11,14.73c-0.24,0.01-0.43,0.11-0.57,0.25c-0.19,0.08-0.38,0.17-0.57,0.25 			c-0.36-2.44,0.09-4.74,1.31-6.88c2.6,0.52,5.55-2.06,7.13-3.72c2.98-3.15,4.55-7.21,4.71-11.51c0.04-1.01-1.53-1.25-1.57-0.23 			c-0.1,2.56-0.64,5.03-1.87,7.31c-0.58,1.08-1.31,2.11-2.13,3.02c-1.8,2-2.82,3.51-5.46,3.24c-2.2-0.22-0.94-2.62,0.37-4.35 			c0.81-1.06,1.69-2.09,2.56-3.1c2.01-2.31,4.16-4.49,6.42-6.57c0.74-0.69-0.18-1.98-0.93-1.28c-1.95,1.8-15.01,13.03-10.68,16.54 			c-1.38,2.41-1.87,5.13-1.43,7.87c0.02,0.12,0.06,0.22,0.12,0.31c-0.09,0.04-0.18,0.08-0.27,0.12c-4.75,2.07-10.01,3.82-14,7.06 			c4.12-17.01,7.62-34.18,12.4-51.03c1.14-4.02,2.39-7.99,3.7-11.95c0.13-0.04,0.25-0.1,0.36-0.21 			c6.55-6.78,14.79-11.19,23.97-12.97c12.24,0.56,26.55,0.67,37.76-4.79c9.28-4.52,15.63-13.05,18.09-22.93 			c0.27-0.04,0.53-0.12,0.8-0.16c1.01-0.16,0.83-1.73-0.18-1.58c-0.11,0.02-0.22,0.04-0.34,0.06c-0.26-0.59-1.34-0.61-1.52,0.21 			c-0.48,0.07-0.95,0.18-1.42,0.32c-10.7,2.05-20.87,5.88-30.86,10.24c-8.53,3.73-19.46,7.14-23.11,16.6 			c-0.07,0.19-0.06,0.36-0.01,0.51c-0.04,0.02-0.08,0.05-0.11,0.07c-8.46,1.76-16.09,5.72-22.42,11.62 			c4.07-11.89,8.89-23.51,14.42-34.79c4.62-3.74,9.94-6.22,15.72-7.43c1.19,3.14,5.89,2.06,8.26,1.3c4.46-1.43,8.19-4.48,11.74-7.42 			c0.23-0.19,0.3-0.44,0.28-0.68c0.3,0,0.6-0.03,0.91-0.03c1.02,0,0.83-1.58-0.18-1.58c-5.25,0-11.14,0.2-16.14,2.03 			c-1.94,0.71-4.68,2.45-5.03,4.74c-5.03,1.03-9.74,3.02-13.96,5.9c2.05-4.05,4.16-8.07,6.38-12.03 			c7.67-0.76,13.52-26.55,14.33-29.9c0.24-0.99-1.33-1.22-1.57-0.23c-0.01,0.04-0.02,0.08-0.03,0.12 			c-6.49,1.22-12.11,4.79-15.69,10.4c-2.92,4.58-5.37,12.28-1.54,17.08c0.96,1.21,1.91,1.93,2.83,2.29 			c-2.67,4.76-5.21,9.58-7.62,14.47c-0.09,0.11-0.15,0.22-0.17,0.34c-0.27,0.56-0.53,1.13-0.8,1.69c-0.03-0.06-0.07-0.11-0.12-0.16 			c0.54-5.03-1.64-10.71-3.21-15.4c-1.81-5.39-4.28-10.36-8.19-14.54c-0.56-0.6-1.42-0.26-1.43,0.55 			c-0.16,11.09,2.23,23.57,11.71,30.49c0.26,0.19,0.52,0.18,0.75,0.09c-6.94,14.49-12.74,29.5-17.24,44.97 			c-5.35,18.38-9.08,37.16-13.64,55.73c-0.49,0.56-0.19,1.79-0.61,2.43c-6.66-9.77-12.08-21.62-10.42-33.55 			c0.12-0.02,0.24-0.06,0.36-0.15c9.3-7.13,17.43-15.25,19.57-27.15c0.45-2.49,0.75-5,0.96-7.51c0.08-0.11,0.09-0.24,0.03-0.35 			c0.78-9.56-0.05-19.2-2.2-28.56c-0.17-0.74-1.11-0.83-1.46-0.4c-5.81,0.19-9.47,4.41-12.8,8.76 			c-5.52,7.22-11.35,14.47-16.32,22.07c-7.11,10.87,1.91,24.6,10.43,32.2c-3.29,18.34,10.41,36.27,10.8,36.36 			c0.15,0.21,0.3,0.43,0.46,0.64c-0.19,0.75-0.37,1.5-0.57,2.25c-4.11,15.8-9.39,31.15-15.42,46.22c1.08-5.8,1.46-11.56-0.76-17.3 			c-0.71-1.82-1.52-3.62-2.4-5.41c0.4,0.08,0.86-0.11,0.94-0.63c0.35-2.09,0.7-4.18,1.04-6.27c6.75,2.38,6.28-11.66,5.67-16.97 			c0.05-0.03,0.09-0.07,0.14-0.11c0.66-0.45,0.24-1.3-0.37-1.41c-0.26-0.88-1.71-0.7-1.54,0.27c0.03,0.18,0.04,0.36,0.07,0.54 			c-4.19,3.48-11.33,13.03-5.43,16.94c-0.02,0.05-0.05,0.1-0.06,0.16c-0.35,2.1-0.7,4.2-1.05,6.3c-2.45-4.8-5.38-9.46-8.3-13.95 			c-0.86-0.84-1.34-1.71-1.67-2.38c1.59-1.26,2.43-3.4,2.31-6.17c-0.12-2.84-1.21-6.01-3.05-8.93c-0.82-1.29-1.58-2.34-2.58-2.07 			c-1.03,0.28-1.06,1.45-1.12,3.39c-0.06,1.87-0.14,4.7-1.31,5.44c-1.16,0.73-3.78-0.35-5.52-1.07c-1.8-0.75-2.99-1.24-3.69-0.41 			c-0.68,0.81-0.04,1.99,0.74,3.22c2.13,3.37,4.86,5.81,7.52,6.98c1.54,0.68,3.05,0.89,4.41,0.65c0.34,0.31,0.57,0.56,1.16,0.79 			c4.08,6.3,8.66,12.87,11.77,19.69c0.64,1.4,1.08,2.8,1.43,4.19c-1.59-1.47-3.77-2.7-4.94-3.66c-6.82-5.55-13.64-11.11-20.46-16.66 			c-0.4-0.33-1.01-0.17-1.23,0.29c-6.42,14.12,17.45,20.5,26.9,24.05c-0.02,0.37,0.2,0.67,0.5,0.81c0.28,4.65-0.58,9.31-1.67,14.15 			c-0.09,0.4,0.12,0.67,0.4,0.79c-2.65,6.4-5.42,12.75-8.3,19.06c-0.08,0.04-0.14,0.09-0.22,0.13c-0.41,0.22-0.42,0.6-0.25,0.91 			c-2.96,6.46-6.02,12.87-9.15,19.26c-0.12,0.14-0.24,0.26-0.36,0.4c-0.19,0.22-0.21,0.45-0.16,0.66 			c-1.71,3.47-3.43,6.93-5.17,10.38c0.07-7.28-4.87-15.66-8.41-21.26c0.11-0.14,0.16-0.33,0.12-0.56c-0.05-0.26-0.14-0.49-0.21-0.75 			c8.73-19.1-0.14-35.91-11.61-51.45c0.07-0.2,0.16-0.4,0.23-0.6c0.01-0.04,0.01-0.07,0.02-0.11c0.07-0.08,0.14-0.16,0.22-0.23 			c0.71-0.74-0.53-1.73-1.23-1c-8.39,8.74-14.62,20.28-12.44,32.74c2.11,12.05,11.92,19.18,22.86,22.93 			c0.28,0.1,0.53,0.03,0.72-0.11c4.29,6.79,11.14,18.44,6.68,25.95c-0.13,0.21-0.13,0.41-0.07,0.57c-3.1,6.08-6.24,12.15-9.38,18.2 			c-0.47,0.91,0.98,1.54,1.45,0.64c6.13-11.79,12.23-23.62,18.1-35.57c7.6-8.46,17.41-9.65,28.25-10.91 			c0.25-0.03,0.43-0.15,0.54-0.31c4.96,3.99,10.18,8.9,16.17,10.79c5.76,1.81,13.18,2.29,19.19,1.65 			c12.26-1.3,19.28-11.32,25.23-21.05c0.08-0.08,0.14-0.16,0.17-0.26C912.95,760.19,913.09,758.84,912.16,758.64z M922.32,695.87 			c0.43-0.24,0.87-0.47,1.3-0.72c-3.01,8.69-4.56,19.22-12.43,24.85c-7.8,5.58-17.61,5.28-26.77,4.4 			C899.84,719.23,913.05,709.3,922.32,695.87z M919.16,697.54c-2.35,3.1-4.91,6.01-7.68,8.67c-1.09-1.62-1.18-3.62-0.2-5.33 			c0.03-0.04,0.01-0.08,0.01-0.12C913.96,699.81,916.59,698.77,919.16,697.54z M910.41,701.06c-0.84,1.85-0.67,3.97,0.51,5.65 			c-0.84,0.8-1.71,1.57-2.59,2.32c-1.3-1.86-2.27-3.89-2.81-6.1c-0.04-0.15-0.15-0.22-0.27-0.26 			C907,702.18,908.72,701.64,910.41,701.06z M902.47,703.49c0.8-0.21,1.58-0.46,2.37-0.68c-0.04,0.06-0.07,0.13-0.04,0.22 			c0.57,2.36,1.56,4.53,2.96,6.5c-0.53,0.45-1.07,0.89-1.61,1.32c-0.02-0.1-0.07-0.19-0.2-0.24c-2.89-1.23-5.08-3.37-6.4-6.2 			C900.51,704.06,901.47,703.75,902.47,703.49z M898.86,704.65c1.38,3,3.7,5.3,6.76,6.61c-0.43,0.33-0.85,0.66-1.28,0.99 			c-4.2-0.25-7.96-1.94-10.91-4.93C895.12,706.27,896.94,705.38,898.86,704.65z M892.8,707.71c2.9,2.97,6.54,4.76,10.64,5.19 			c-0.66,0.47-1.32,0.94-2,1.39c-0.03-0.21-0.21-0.41-0.46-0.31c-4.53,1.84-8.79-0.38-12.61-2.76 			C889.71,709.92,891.2,708.75,892.8,707.71z M887.84,711.75c3.88,2.41,8.15,4.59,12.7,3.12c-1.83,1.18-3.7,2.29-5.63,3.31 			c-0.02-0.09-0.08-0.17-0.2-0.21c-3.17-1.03-6.34-2.07-9.51-3.1C886,713.77,886.88,712.73,887.84,711.75z M884.73,715.5 			c3.14,1.02,6.28,2.05,9.41,3.07c-1.44,0.74-2.9,1.44-4.39,2.09c-2.48,0.01-4.83-0.57-7.04-1.74 			C883.32,717.72,883.99,716.58,884.73,715.5z M888.14,721.32c-2.39,0.97-4.85,1.82-7.36,2.55c0.45-1.5,0.99-2.93,1.63-4.29 			C884.22,720.54,886.14,721.12,888.14,721.32z M910.68,667.51c2.66,1.41,5.13,3.06,7.48,4.9c-7.05-0.03-13.99-0.82-20.88-2.38 			C897.61,662.48,907.05,665.59,910.68,667.51z M901.93,650.83c0.78-2.4,2.49-4.89,4.82-7c0.2-0.18,0.36-0.32,0.51-0.44 			c-0.07,0.36-0.16,0.77-0.24,1.11c-0.55,2.46-1.23,5.53,0.33,7.25c1.58,1.75,4.83,1.28,7.2,0.94c0.26-0.04,0.56-0.08,0.85-0.12 			c-0.11,0.11-0.24,0.23-0.39,0.37c-2.33,2.11-4.97,3.57-7.44,4.11c-2.29,0.51-4.11,0.15-5.16-0.99 			C901.37,654.92,901.2,653.06,901.93,650.83z M930.37,599.85c0.01-0.03,0.03-0.05,0.03-0.08c0.47-2.89,1.72-5.24,3.37-7.32 			c-0.51,2.15-0.58,4.42-0.17,6.44C932.54,599.24,931.47,599.57,930.37,599.85z M934.67,598.57c-0.12,0.04-0.25,0.07-0.37,0.11 			c-0.48-2.35-0.23-5.16,0.62-7.59c1.25-1.34,2.68-2.55,4.15-3.72c-1.18,3.1-1.09,6.51-1.23,9.83 			C936.81,597.7,935.77,598.19,934.67,598.57z M938.58,596.89c0.12-3.58,0.06-7.27,1.74-10.5c0.73-0.56,1.46-1.11,2.18-1.66 			c0.17-0.13,0.35-0.28,0.53-0.42c-1.48,3.47-2.08,7.13-1.69,10.92C940.45,595.82,939.55,596.4,938.58,596.89z M942.06,594.8 			c-0.34-3.94,0.34-7.72,2.09-11.29c0.03-0.05,0-0.09,0.01-0.14c0.84-0.73,1.75-1.54,2.69-2.35c-1.31,3.61-1.86,7.37-1.56,11.23 			C944.27,593.17,943.2,594.02,942.06,594.8z M953.84,576.26c0.42-0.08,0.84-0.17,1.27-0.25c-1.12,4.16-2.98,8.01-5.47,11.38 			c-0.01-3.42,0.6-6.72,1.84-9.91C952.26,576.99,953.05,576.57,953.84,576.26z M950.44,578.17c-1.14,3.29-1.67,6.69-1.54,10.21 			c-0.9,1.12-1.86,2.18-2.89,3.18c-0.21-3.97,0.43-7.8,1.97-11.49C948.77,579.4,949.6,578.75,950.44,578.17z M927.77,584.57 			c6.89-2.9,13.88-5.43,21.09-7.24c-3.03,2.19-5.84,5.01-8.23,6.84c-1.57,1.2-3.11,2.41-4.55,3.68c-0.14-0.07-0.3-0.08-0.41,0.09 			c-0.13,0.19-0.23,0.4-0.35,0.6c-3.18,2.96-5.72,6.35-6.48,11c-0.04,0.26,0.03,0.46,0.17,0.61c-8.1,1.84-16.91,2.04-25.12,1.76 			c-0.1-0.33-0.37-0.59-0.81-0.53c-0.42,0.06-0.82,0.16-1.24,0.23C905.85,592.01,918.88,588.31,927.77,584.57z M910.14,568.52 			c0.35-0.6,0.84-1.03,1.47-1.29c0.67-0.42,1.36-0.7,2.11-0.93c1.66-0.52,3.41-0.81,5.13-1.07c2.39-0.36,4.79-0.53,7.2-0.62 			c-1.77,1.46-3.56,2.9-5.5,4.12c-1.31,0.82-2.69,1.58-4.15,2.12c-0.83,0.31-1.7,0.58-2.57,0.75c-1.64,0.32-1.82,0.35-3.17-0.98 			c-0.19-0.08-0.3-0.17-0.44-0.25c0.13-0.47-0.15-1.04-0.74-1C909.52,569.09,909.71,568.81,910.14,568.52z M878.45,552.39 			c2.67,3.31,4.62,7.02,6.08,11.06c1.6,4.45,3.8,10.09,3.64,14.95C880.81,572.07,878.62,561.88,878.45,552.39z M895.85,558.28 			c-2.33-4.44,0.89-11.34,3.59-14.89c3.24-4.27,7.73-6.99,12.92-8.11c-1.24,4.87-2.62,9.7-4.29,14.45 			C907.09,552.47,901.55,569.14,895.85,558.28z M854.77,642.21c-1.95-0.88-3.34-2.58-3.7-4.73c-0.02-0.12-0.09-0.2-0.17-0.25 			c0.49-1.99,0.99-3.97,1.51-5.96c0.58,3.31,2.45,6.12,5.25,7.95C856.74,640.26,855.77,641.25,854.77,642.21z M860.09,636.35 			c-0.62,0.8-1.3,1.55-1.96,2.32c-2.8-1.79-4.65-4.66-5.09-7.98c-0.03-0.22-0.22-0.32-0.39-0.3c0.37-1.42,0.76-2.84,1.15-4.25 			c0.4,4.14,2.85,7.81,6.62,9.76C860.3,636.05,860.21,636.2,860.09,636.35z M860.83,635.29c-4.2-2.12-6.72-6.54-6.35-11.26 			c0.01-0.09-0.03-0.15-0.07-0.21c0.33-1.22,0.65-2.45,0.99-3.67c0.99,2.71,2.21,5.34,3.8,7.76c1,1.52,2.21,3.1,4.04,3.15 			C862.59,632.51,861.79,633.92,860.83,635.29z M865.63,623.53c-0.47,2.34-1.12,4.59-2.03,6.76c-3.93,0.3-6.81-8.26-7.77-11.04 			c-0.03-0.08-0.09-0.11-0.14-0.15c0.43-1.53,0.9-3.05,1.35-4.58c2.08,3.71,4.93,6.76,8.58,9 			C865.62,623.53,865.63,623.53,865.63,623.53z M866.39,618.78c-0.17,1.35-0.37,2.67-0.62,3.97c-3.6-2.29-6.47-5.35-8.45-9.15 			c0.44-1.51,0.9-3.01,1.35-4.51c2.06,2.87,4.8,4.98,8.07,6.26C866.64,616.48,866.53,617.63,866.39,618.78z M866.8,614.57 			c-3.22-1.31-5.9-3.41-7.88-6.35c0.45-1.48,0.87-2.96,1.33-4.44c1.05,3.13,3.52,5.47,6.76,6.34 			C866.98,611.61,866.91,613.09,866.8,614.57z M866.81,601.96c-1.91-0.7-3.3-2.19-3.8-4.18c-0.11-0.46-0.79-0.19-0.68,0.26 			c0.57,2.29,2.28,4.07,4.53,4.74c0,0,0.01,0,0.01,0c0.13,2.19,0.16,4.39,0.13,6.6c-3.17-0.9-5.58-3.4-6.33-6.63 			c-0.01-0.05-0.05-0.07-0.08-0.11c1.42-4.5,2.9-8.99,4.43-13.46C865.91,593.41,866.52,597.67,866.81,601.96z M846.58,647.69 			c-4.11-3.76-7.49-8.14-9.74-13.3c-1.4-3.21-2.91-7.23-2.42-10.77c0.55-3.94,3.71-7.38,5.99-10.45c3.57-4.8,7.13-9.6,10.7-14.39 			c3.3-4.43,6.82-9.9,12.64-10.73c-6.7,19.55-12.35,39.41-16.96,59.56C846.71,647.63,846.64,647.66,846.58,647.69z M850.62,638.45 			c0.57,1.89,1.84,3.43,3.62,4.31c-1.87,1.78-3.85,3.44-5.87,5.04C849.09,644.67,849.85,641.56,850.62,638.45z M814.88,687.04 			c-0.14-0.22-0.25-0.41-0.35-0.57c0.34,0.13,0.73,0.29,1.05,0.42c2.33,0.97,5.23,2.17,7.19,0.93c1.99-1.26,2.09-4.54,2.17-6.93 			c0.01-0.26,0.02-0.57,0.03-0.86c0.09,0.13,0.19,0.28,0.29,0.45c1.68,2.65,2.66,5.51,2.77,8.03c0.1,2.34-0.56,4.08-1.86,4.91 			C823.35,695.2,818.18,692.27,814.88,687.04z M838.23,700.43c-0.04-0.84,0.06-1.66,0.33-2.45c0.28-1.17,0.75-2.27,1.32-3.33 			c1.12-2.11,2.63-3.84,4.43-5.31c0.22,1.8,0.36,3.6,0.29,5.42c-0.05,1.14-0.15,2.28-0.31,3.42c-0.11,0.76-0.24,1.51-0.4,2.25 			c0.02,1.74-0.04,2.33-1.76,3.54C839.57,704.11,838.17,702.62,838.23,700.43z M814.59,705.09c-0.14-2.86,0.64-3.13,2.34-0.84 			c1.24,1.01,2.48,2.02,3.72,3.03c1.86,1.51,3.72,3.03,5.58,4.54c1.64,1.33,10.29,7.29,12.94,10.58 			C830.99,719.55,811.56,713.37,814.59,705.09z M806.28,765.93c-0.79-2.11-1.87-4.05-3.08-5.92c2.29-0.49,4.22-1.78,5.52-3.64 			C808.38,759.49,807.59,762.67,806.28,765.93z M808.9,754.52c-1.08,2.45-3.18,4.21-5.83,4.77c-0.11,0.02-0.18,0.08-0.23,0.16 			c-1.06-1.59-2.2-3.14-3.32-4.72c3.71-0.77,6.94-2.81,9.2-5.85C808.92,750.74,809,752.62,808.9,754.52z M808.62,747.76 			c-2.23,3.34-5.59,5.58-9.55,6.32c-0.86-1.22-1.71-2.46-2.49-3.74c-0.48-0.8-0.97-1.65-1.45-2.51c0.02,0,0.03,0.01,0.04,0.01 			c4.57-1.16,8.57-3.52,11.88-6.81C807.76,743.24,808.3,745.48,808.62,747.76z M806.8,740.26c-3.29,3.36-7.3,5.72-11.88,6.88 			c-0.05,0.01-0.07,0.05-0.1,0.08c-0.89-1.65-1.75-3.39-2.46-5.18c5.05-0.36,9.51-3.01,12.28-7.23 			C805.46,736.61,806.18,738.43,806.8,740.26z M804.27,734.07c-2.65,4.32-7.15,6.96-12.19,7.27c-0.73-1.95-1.25-3.94-1.49-5.91 			c4.51-0.62,8.47-1.86,11.89-4.82C803.11,731.76,803.71,732.91,804.27,734.07z M797.34,722.34c1.72,2.5,3.33,5.04,4.78,7.62 			c-3.33,2.94-7.23,4.14-11.63,4.74c-0.07-0.84-0.08-1.67-0.02-2.49c0.1-1.4,0.39-2.82,0.79-4.25c0.03,0.06,0.06,0.12,0.14,0.15 			c2.86,1.26,6.09,0.92,8.62-0.91c0.38-0.28-0.05-0.87-0.43-0.59c-2.32,1.68-5.28,1.99-7.9,0.83c-0.1-0.05-0.2-0.04-0.28,0 			c0.39-1.33,0.86-2.67,1.38-4c1.58,0.28,3.14-0.03,4.49-1C797.32,722.42,797.32,722.38,797.34,722.34z M796.99,721.83 			c-0.05,0.01-0.09,0-0.14,0.03c-1.13,0.81-2.46,1.11-3.79,0.91c0.55-1.4,1.12-2.78,1.66-4.13 			C795.49,719.7,796.25,720.76,796.99,721.83z M804.98,768.9c-10.81-3.87-20.13-11.08-21.48-23.26c-1.09-9.87,3.19-18.86,9.3-26.26 			c-2.81,7.59-5.16,14.37-2.04,22.64c1.69,4.48,4.03,8.71,6.75,12.64c3.03,4.39,6.47,8.33,7.86,13.55 			c-0.01,0.04-0.02,0.08-0.03,0.11C805.15,768.45,805.02,768.66,804.98,768.9z M901.8,758.61c2.61,0.28,5.22,0.67,7.82,1.16 			c-3.28,1.36-6.61,2.58-9.97,3.69C900.58,761.96,901.3,760.35,901.8,758.61z M901.06,758.53c-0.55,1.92-1.39,3.69-2.51,5.3 			c-3.58,1.15-7.21,2.14-10.88,2.97c2.95-2.2,5.14-5.16,6.37-8.72C896.38,758.14,898.72,758.29,901.06,758.53z M893.27,758.05 			c-1.4,3.86-3.95,7.01-7.48,9.14c-1.25,0.26-2.48,0.56-3.74,0.78c-2.31,0.41-4.62,0.79-6.92,1.08c0.2-0.14,0.39-0.27,0.59-0.41 			c6.13-1.02,8.26-7.68,13.24-10.61C890.4,758.01,891.84,758.01,893.27,758.05z M882.48,758.51c0.1-0.01,0.17-0.07,0.22-0.13 			c1.63-0.14,3.27-0.24,4.91-0.3c-3.93,2.97-6.27,8.3-11.1,9.65c-0.09-0.19-0.31-0.32-0.52-0.16c-0.22,0.15-0.44,0.3-0.66,0.46 			c-0.06,0.03-0.12,0.05-0.15,0.1c-0.49,0.34-0.98,0.68-1.47,1.02c-0.03,0.02-0.03,0.06-0.05,0.08c-0.12,0.01-0.24,0.02-0.36,0.04 			C875.41,765.41,877.56,759.11,882.48,758.51z M879.93,758.65c-3.63,2.03-5.5,7.09-7.37,10.49c-0.04,0.08-0.03,0.14-0.02,0.21 			c-1.9,0.18-3.79,0.29-5.67,0.29c0.07-0.02,0.13-0.04,0.18-0.12c2.35-3.72,4.75-7.36,8.13-10.21 			C876.76,759.05,878.34,758.83,879.93,758.65z M866.4,761.13c2.48-0.64,4.97-1.18,7.49-1.62c-2.97,2.76-5.24,6.1-7.41,9.54 			c-0.16,0.26,0.03,0.53,0.25,0.58c-1.4,0-2.79-0.07-4.17-0.2C863.43,766.47,864.71,763.71,866.4,761.13z M860.02,763.19 			c0.07-0.06,0.09-0.14,0.1-0.22c1.74-0.57,3.5-1.11,5.26-1.58c-1.55,2.49-2.74,5.14-3.55,7.98c-1.3-0.15-2.59-0.38-3.87-0.68 			C857.79,766.62,858.48,764.63,860.02,763.19z M851.32,766.31c2.51-1.09,5.06-2.07,7.63-2.95c-1.21,1.45-1.82,3.23-1.72,5.14 			C855.23,767.98,853.26,767.26,851.32,766.31z M884.66,780.08c-5.6,0.27-13.14-0.12-18.36-2.32c-4.39-1.85-8.49-5.41-12.38-8.63 			c8.41,3.04,17.2,2.23,26.23,0.78c5.88-0.95,11.65-2.34,17.32-4.08c0.14,0.1,0.35,0.13,0.5-0.04c0.04-0.05,0.08-0.11,0.12-0.16 			c3.84-1.19,7.62-2.56,11.35-4.09C903.6,770.84,896.66,779.5,884.66,780.08z"></path> 	</g> </g> </svg>